<mxfile host="Electron" modified="2024-04-11T01:07:09.003Z" agent="Mozilla/5.0 (Windows NT 10.0; Win64; x64) AppleWebKit/537.36 (KHTML, like Gecko) draw.io/22.1.16 Chrome/120.0.6099.109 Electron/28.1.0 Safari/537.36" etag="eH2XQoTxX7uKJV6P4D6E" version="22.1.16" type="device">
  <diagram name="Page-1" id="aWFMQGwN5_mobpyzdR4b">
    <mxGraphModel dx="1050" dy="638" grid="1" gridSize="10" guides="1" tooltips="1" connect="1" arrows="1" fold="1" page="1" pageScale="1" pageWidth="850" pageHeight="1100" background="#ffffff" math="0" shadow="0">
      <root>
        <mxCell id="0" />
        <mxCell id="1" parent="0" />
        <mxCell id="I4_arkbSUdRG-t40aXQZ-1" value="" style="shape=umlLifeline;perimeter=lifelinePerimeter;whiteSpace=wrap;html=1;container=1;dropTarget=0;collapsible=0;recursiveResize=0;outlineConnect=0;portConstraint=eastwest;newEdgeStyle={&quot;curved&quot;:0,&quot;rounded&quot;:0};participant=umlActor;" parent="1" vertex="1">
          <mxGeometry x="80" y="90" width="25" height="830" as="geometry" />
        </mxCell>
        <mxCell id="I4_arkbSUdRG-t40aXQZ-2" value="" style="html=1;points=[[0,0,0,0,5],[0,1,0,0,-5],[1,0,0,0,5],[1,1,0,0,-5]];perimeter=orthogonalPerimeter;outlineConnect=0;targetShapes=umlLifeline;portConstraint=eastwest;newEdgeStyle={&quot;curved&quot;:0,&quot;rounded&quot;:0};" parent="I4_arkbSUdRG-t40aXQZ-1" vertex="1">
          <mxGeometry x="5" y="70" width="10" height="680" as="geometry" />
        </mxCell>
        <mxCell id="I4_arkbSUdRG-t40aXQZ-3" value="Actor" style="text;html=1;strokeColor=none;fillColor=none;align=center;verticalAlign=middle;whiteSpace=wrap;rounded=0;" parent="1" vertex="1">
          <mxGeometry x="60" y="60" width="60" height="30" as="geometry" />
        </mxCell>
        <mxCell id="I4_arkbSUdRG-t40aXQZ-4" value="" style="shape=umlLifeline;perimeter=lifelinePerimeter;whiteSpace=wrap;html=1;container=1;dropTarget=0;collapsible=0;recursiveResize=0;outlineConnect=0;portConstraint=eastwest;newEdgeStyle={&quot;curved&quot;:0,&quot;rounded&quot;:0};participant=umlBoundary;" parent="1" vertex="1">
          <mxGeometry x="200" y="90" width="50" height="830" as="geometry" />
        </mxCell>
        <mxCell id="I4_arkbSUdRG-t40aXQZ-5" value="" style="html=1;points=[[0,0,0,0,5],[0,1,0,0,-5],[1,0,0,0,5],[1,1,0,0,-5]];perimeter=orthogonalPerimeter;outlineConnect=0;targetShapes=umlLifeline;portConstraint=eastwest;newEdgeStyle={&quot;curved&quot;:0,&quot;rounded&quot;:0};" parent="I4_arkbSUdRG-t40aXQZ-4" vertex="1">
          <mxGeometry x="20" y="80" width="10" height="670" as="geometry" />
        </mxCell>
        <mxCell id="I4_arkbSUdRG-t40aXQZ-6" value="ActorDetailPage" style="text;html=1;strokeColor=none;fillColor=none;align=center;verticalAlign=middle;whiteSpace=wrap;rounded=0;" parent="1" vertex="1">
          <mxGeometry x="200" y="60" width="60" height="30" as="geometry" />
        </mxCell>
        <mxCell id="I4_arkbSUdRG-t40aXQZ-7" value="change information" style="html=1;verticalAlign=bottom;startArrow=none;endArrow=block;startSize=8;curved=0;rounded=0;entryX=0;entryY=0;entryDx=0;entryDy=5;startFill=0;" parent="1" source="I4_arkbSUdRG-t40aXQZ-2" target="I4_arkbSUdRG-t40aXQZ-5" edge="1">
          <mxGeometry x="0.008" relative="1" as="geometry">
            <mxPoint x="100" y="175" as="sourcePoint" />
            <mxPoint as="offset" />
          </mxGeometry>
        </mxCell>
        <mxCell id="I4_arkbSUdRG-t40aXQZ-8" value="send userReq" style="html=1;verticalAlign=bottom;startArrow=none;endArrow=block;startSize=8;curved=0;rounded=0;startFill=0;" parent="1" target="I4_arkbSUdRG-t40aXQZ-10" edge="1">
          <mxGeometry relative="1" as="geometry">
            <mxPoint x="230" y="280" as="sourcePoint" />
            <mxPoint x="355" y="281.41999999999996" as="targetPoint" />
          </mxGeometry>
        </mxCell>
        <mxCell id="I4_arkbSUdRG-t40aXQZ-9" value="" style="shape=umlLifeline;perimeter=lifelinePerimeter;whiteSpace=wrap;html=1;container=1;dropTarget=0;collapsible=0;recursiveResize=0;outlineConnect=0;portConstraint=eastwest;newEdgeStyle={&quot;curved&quot;:0,&quot;rounded&quot;:0};participant=umlControl;" parent="1" vertex="1">
          <mxGeometry x="340" y="90" width="40" height="830" as="geometry" />
        </mxCell>
        <mxCell id="I4_arkbSUdRG-t40aXQZ-10" value="" style="html=1;points=[[0,0,0,0,5],[0,1,0,0,-5],[1,0,0,0,5],[1,1,0,0,-5]];perimeter=orthogonalPerimeter;outlineConnect=0;targetShapes=umlLifeline;portConstraint=eastwest;newEdgeStyle={&quot;curved&quot;:0,&quot;rounded&quot;:0};" parent="I4_arkbSUdRG-t40aXQZ-9" vertex="1">
          <mxGeometry x="15" y="180" width="10" height="530" as="geometry" />
        </mxCell>
        <mxCell id="I4_arkbSUdRG-t40aXQZ-11" value="CartController" style="text;html=1;strokeColor=none;fillColor=none;align=center;verticalAlign=middle;whiteSpace=wrap;rounded=0;" parent="1" vertex="1">
          <mxGeometry x="340" y="60" width="60" height="30" as="geometry" />
        </mxCell>
        <mxCell id="I4_arkbSUdRG-t40aXQZ-12" value="UserService" style="shape=umlLifeline;perimeter=lifelinePerimeter;whiteSpace=wrap;html=1;container=1;dropTarget=0;collapsible=0;recursiveResize=0;outlineConnect=0;portConstraint=eastwest;newEdgeStyle={&quot;curved&quot;:0,&quot;rounded&quot;:0};" parent="1" vertex="1">
          <mxGeometry x="470" y="90" width="100" height="830" as="geometry" />
        </mxCell>
        <mxCell id="I4_arkbSUdRG-t40aXQZ-13" value="" style="html=1;points=[[0,0,0,0,5],[0,1,0,0,-5],[1,0,0,0,5],[1,1,0,0,-5]];perimeter=orthogonalPerimeter;outlineConnect=0;targetShapes=umlLifeline;portConstraint=eastwest;newEdgeStyle={&quot;curved&quot;:0,&quot;rounded&quot;:0};" parent="I4_arkbSUdRG-t40aXQZ-12" vertex="1">
          <mxGeometry x="45" y="265" width="10" height="445" as="geometry" />
        </mxCell>
        <mxCell id="I4_arkbSUdRG-t40aXQZ-16" value="" style="html=1;points=[[0,0,0,0,5],[0,1,0,0,-5],[1,0,0,0,5],[1,1,0,0,-5]];perimeter=orthogonalPerimeter;outlineConnect=0;targetShapes=umlLifeline;portConstraint=eastwest;newEdgeStyle={&quot;curved&quot;:0,&quot;rounded&quot;:0};" parent="I4_arkbSUdRG-t40aXQZ-12" vertex="1">
          <mxGeometry x="50" y="450" width="10" height="40" as="geometry" />
        </mxCell>
        <mxCell id="I4_arkbSUdRG-t40aXQZ-17" value="updateUserDetail" style="html=1;align=left;spacingLeft=2;endArrow=block;rounded=0;edgeStyle=orthogonalEdgeStyle;curved=0;rounded=0;" parent="I4_arkbSUdRG-t40aXQZ-12" target="I4_arkbSUdRG-t40aXQZ-16" edge="1">
          <mxGeometry relative="1" as="geometry">
            <mxPoint x="55" y="430" as="sourcePoint" />
            <Array as="points">
              <mxPoint x="85" y="460" />
            </Array>
          </mxGeometry>
        </mxCell>
        <mxCell id="I4_arkbSUdRG-t40aXQZ-18" value="editUserReq(userReq)" style="html=1;verticalAlign=bottom;startArrow=none;endArrow=block;startSize=8;curved=0;rounded=0;entryX=0;entryY=0;entryDx=0;entryDy=5;startFill=0;" parent="1" source="I4_arkbSUdRG-t40aXQZ-10" target="I4_arkbSUdRG-t40aXQZ-13" edge="1">
          <mxGeometry relative="1" as="geometry">
            <mxPoint x="445" y="360" as="sourcePoint" />
            <mxPoint as="offset" />
          </mxGeometry>
        </mxCell>
        <mxCell id="I4_arkbSUdRG-t40aXQZ-19" value="return true" style="html=1;verticalAlign=bottom;endArrow=open;dashed=1;endSize=8;curved=0;rounded=0;" parent="1" edge="1">
          <mxGeometry x="0.0039" relative="1" as="geometry">
            <mxPoint x="365" y="760" as="targetPoint" />
            <mxPoint x="515" y="760" as="sourcePoint" />
            <mxPoint as="offset" />
          </mxGeometry>
        </mxCell>
        <mxCell id="I4_arkbSUdRG-t40aXQZ-20" value="return success message" style="html=1;verticalAlign=bottom;endArrow=open;dashed=1;endSize=8;curved=0;rounded=0;" parent="1" edge="1">
          <mxGeometry x="0.008" relative="1" as="geometry">
            <mxPoint x="230" y="800" as="targetPoint" />
            <mxPoint x="355" y="800" as="sourcePoint" />
            <mxPoint as="offset" />
          </mxGeometry>
        </mxCell>
        <mxCell id="I4_arkbSUdRG-t40aXQZ-21" value="return success message" style="html=1;verticalAlign=bottom;endArrow=open;dashed=1;endSize=8;curved=0;rounded=0;" parent="1" edge="1">
          <mxGeometry relative="1" as="geometry">
            <mxPoint x="220" y="839" as="sourcePoint" />
            <mxPoint x="95" y="839" as="targetPoint" />
          </mxGeometry>
        </mxCell>
        <mxCell id="I4_arkbSUdRG-t40aXQZ-24" value="" style="shape=cylinder3;whiteSpace=wrap;html=1;boundedLbl=1;backgroundOutline=1;size=7.833343505859418;" parent="1" vertex="1">
          <mxGeometry x="701.25" y="90" width="37.5" height="40" as="geometry" />
        </mxCell>
        <mxCell id="I4_arkbSUdRG-t40aXQZ-25" value="" style="endArrow=none;dashed=1;html=1;rounded=0;entryX=0.5;entryY=1;entryDx=0;entryDy=0;entryPerimeter=0;" parent="1" source="I4_arkbSUdRG-t40aXQZ-30" target="I4_arkbSUdRG-t40aXQZ-24" edge="1">
          <mxGeometry width="50" height="50" relative="1" as="geometry">
            <mxPoint x="720" y="840" as="sourcePoint" />
            <mxPoint x="461.25" y="50" as="targetPoint" />
          </mxGeometry>
        </mxCell>
        <mxCell id="I4_arkbSUdRG-t40aXQZ-26" value="Database" style="text;html=1;strokeColor=none;fillColor=none;align=center;verticalAlign=middle;whiteSpace=wrap;rounded=0;" parent="1" vertex="1">
          <mxGeometry x="690" y="60" width="60" height="30" as="geometry" />
        </mxCell>
        <mxCell id="I4_arkbSUdRG-t40aXQZ-27" value="" style="shape=umlDestroy;whiteSpace=wrap;html=1;strokeWidth=3;targetShapes=umlLifeline;" parent="1" vertex="1">
          <mxGeometry x="705" y="910" width="30" height="30" as="geometry" />
        </mxCell>
        <mxCell id="I4_arkbSUdRG-t40aXQZ-32" value="return currentUser" style="html=1;verticalAlign=bottom;endArrow=open;dashed=1;endSize=8;curved=0;rounded=0;" parent="1" edge="1">
          <mxGeometry relative="1" as="geometry">
            <mxPoint x="710" y="480" as="sourcePoint" />
            <mxPoint x="530" y="480" as="targetPoint" />
          </mxGeometry>
        </mxCell>
        <mxCell id="I4_arkbSUdRG-t40aXQZ-34" value="" style="shape=umlDestroy;whiteSpace=wrap;html=1;strokeWidth=3;targetShapes=umlLifeline;" parent="1" vertex="1">
          <mxGeometry x="505" y="910" width="30" height="30" as="geometry" />
        </mxCell>
        <mxCell id="I4_arkbSUdRG-t40aXQZ-35" value="" style="shape=umlDestroy;whiteSpace=wrap;html=1;strokeWidth=3;targetShapes=umlLifeline;" parent="1" vertex="1">
          <mxGeometry x="345" y="910" width="30" height="30" as="geometry" />
        </mxCell>
        <mxCell id="I4_arkbSUdRG-t40aXQZ-36" value="" style="shape=umlDestroy;whiteSpace=wrap;html=1;strokeWidth=3;targetShapes=umlLifeline;" parent="1" vertex="1">
          <mxGeometry x="210" y="910" width="30" height="30" as="geometry" />
        </mxCell>
        <mxCell id="I4_arkbSUdRG-t40aXQZ-37" value="" style="shape=umlDestroy;whiteSpace=wrap;html=1;strokeWidth=3;targetShapes=umlLifeline;" parent="1" vertex="1">
          <mxGeometry x="77.5" y="910" width="30" height="30" as="geometry" />
        </mxCell>
        <mxCell id="I4_arkbSUdRG-t40aXQZ-38" value="" style="endArrow=none;dashed=1;html=1;rounded=0;entryX=0.5;entryY=1;entryDx=0;entryDy=0;entryPerimeter=0;" parent="1" source="I4_arkbSUdRG-t40aXQZ-42" target="I4_arkbSUdRG-t40aXQZ-30" edge="1">
          <mxGeometry width="50" height="50" relative="1" as="geometry">
            <mxPoint x="720" y="840" as="sourcePoint" />
            <mxPoint x="720" y="130" as="targetPoint" />
          </mxGeometry>
        </mxCell>
        <mxCell id="I4_arkbSUdRG-t40aXQZ-30" value="" style="html=1;points=[[0,0,0,0,5],[0,1,0,0,-5],[1,0,0,0,5],[1,1,0,0,-5]];perimeter=orthogonalPerimeter;outlineConnect=0;targetShapes=umlLifeline;portConstraint=eastwest;newEdgeStyle={&quot;curved&quot;:0,&quot;rounded&quot;:0};" parent="1" vertex="1">
          <mxGeometry x="715" y="400" width="10" height="80" as="geometry" />
        </mxCell>
        <mxCell id="I4_arkbSUdRG-t40aXQZ-40" value="findUserById(userId)" style="html=1;verticalAlign=bottom;startArrow=none;endArrow=block;startSize=8;curved=0;rounded=0;startFill=0;" parent="1" edge="1">
          <mxGeometry relative="1" as="geometry">
            <mxPoint x="530" y="400" as="sourcePoint" />
            <mxPoint as="offset" />
            <mxPoint x="710" y="400" as="targetPoint" />
          </mxGeometry>
        </mxCell>
        <mxCell id="I4_arkbSUdRG-t40aXQZ-41" value="saveOrEditUser(user)" style="html=1;verticalAlign=bottom;startArrow=none;endArrow=block;startSize=8;curved=0;rounded=0;startFill=0;" parent="1" edge="1">
          <mxGeometry relative="1" as="geometry">
            <mxPoint x="525" y="620" as="sourcePoint" />
            <mxPoint as="offset" />
            <mxPoint x="705" y="620" as="targetPoint" />
          </mxGeometry>
        </mxCell>
        <mxCell id="I4_arkbSUdRG-t40aXQZ-44" value="" style="endArrow=none;dashed=1;html=1;rounded=0;entryX=0.5;entryY=1;entryDx=0;entryDy=0;entryPerimeter=0;exitX=0.5;exitY=0.333;exitDx=0;exitDy=0;exitPerimeter=0;" parent="1" source="I4_arkbSUdRG-t40aXQZ-27" target="I4_arkbSUdRG-t40aXQZ-42" edge="1">
          <mxGeometry width="50" height="50" relative="1" as="geometry">
            <mxPoint x="720" y="840" as="sourcePoint" />
            <mxPoint x="720" y="480" as="targetPoint" />
          </mxGeometry>
        </mxCell>
        <mxCell id="I4_arkbSUdRG-t40aXQZ-42" value="" style="html=1;points=[[0,0,0,0,5],[0,1,0,0,-5],[1,0,0,0,5],[1,1,0,0,-5]];perimeter=orthogonalPerimeter;outlineConnect=0;targetShapes=umlLifeline;portConstraint=eastwest;newEdgeStyle={&quot;curved&quot;:0,&quot;rounded&quot;:0};" parent="1" vertex="1">
          <mxGeometry x="715" y="620" width="10" height="80" as="geometry" />
        </mxCell>
        <mxCell id="I4_arkbSUdRG-t40aXQZ-45" value="return true" style="html=1;verticalAlign=bottom;endArrow=open;dashed=1;endSize=8;curved=0;rounded=0;" parent="1" edge="1">
          <mxGeometry x="0.0039" relative="1" as="geometry">
            <mxPoint x="530" y="700" as="targetPoint" />
            <mxPoint x="710" y="700" as="sourcePoint" />
            <mxPoint as="offset" />
          </mxGeometry>
        </mxCell>
      </root>
    </mxGraphModel>
  </diagram>
</mxfile>
